PathFileType	4	(X/Y/Z)	/Users/niels/Desktop/University/Third Semester/Perception and Action/Exam/Gymnastics Motion Tracking/Code for Gym Tracking/Analyzed Data/Webcam_Backflip/id1_3_baseline_Sports2D/id1_3_baseline_Sports2D_px_person00.trc
DataRate	CameraRate	NumFrames	NumMarkers	Units	OrigDataRate	OrigDataStartFrame	OrigNumFrames
29.87551867219917	29.87551867219917	11	22	m	29.87551867219917	0	241
Frame#	Time	Hip			RHip			RKnee			RAnkle			RBigToe			RSmallToe			RHeel			LHip			LKnee			LAnkle			LBigToe			LSmallToe			LHeel			Neck			Head			Nose			RShoulder			RElbow			RWrist			LShoulder			LElbow			LWrist		
		X1	Y1	Z1	X2	Y2	Z2	X3	Y3	Z3	X4	Y4	Z4	X5	Y5	Z5	X6	Y6	Z6	X7	Y7	Z7	X8	Y8	Z8	X9	Y9	Z9	X10	Y10	Z10	X11	Y11	Z11	X12	Y12	Z12	X13	Y13	Z13	X14	Y14	Z14	X15	Y15	Z15	X16	Y16	Z16	X17	Y17	Z17	X18	Y18	Z18	X19	Y19	Z19	X20	Y20	Z20	X21	Y21	Z21	X22	Y22	Z22
0	0.0	0.9553007102441582	-0.5974985291967269	0.0	0.9493754626542837	-0.5951289241214838	0.0	0.9517430234629967	-0.6982760936707171	0.0	0.9363314154327753	-0.8109155228888187	0.0	0.9837545082216309	-0.8263291549241573	0.0	0.9766391328387339	-0.829884425705142	0.0	0.9244807252391908	-0.8263285336620253	0.0	0.9671577150888931	-0.5939452027196754	0.0	0.9588547599417432	-0.6959062964026276	0.0	0.937519636586861	-0.8038010704293029	0.0	0.9849469645455657	-0.8239537123833082	0.0	0.9790182813085493	-0.820395772184357	0.0	0.9209199343972838	-0.8168407140452306	0.0	0.9635987355149211	-0.4315169622223877	0.0	0.9813775701678842	-0.3651218318412833	0.0	0.9825739658658176	-0.4066268438879362	0.0	0.9398902235110846	-0.45760085848765447	0.0	0.9493846216222729	-0.5287240411239059	0.0	1.016964525406453	-0.5630864174672177	0.0	0.9719220916827194	-0.45997494100163494	0.0	0.9755277916673555	-0.5263466204230347	0.0	1.018394610384512	-0.5618899442978309	0.0
1	0.03347222222222222	0.9549425011323155	-0.597631125629697	0.0	0.9488802128523459	-0.5950965526468794	0.0	0.9519553324761606	-0.697997281675222	0.0	0.9361255864005633	-0.8107362014940513	0.0	0.983390076525362	-0.826310718914098	0.0	0.976568369398033	-0.8297926988320871	0.0	0.92425116804614	-0.8261061068217617	0.0	0.966456133613501	-0.594109349374948	0.0	0.9580399908027943	-0.6961067301742307	0.0	0.9376498347907758	-0.8044575958805456	0.0	0.984396191019622	-0.8242624823581977	0.0	0.9786595659283214	-0.8207984371403407	0.0	0.9212749348146089	-0.8177880624995033	0.0	0.9631330534621745	-0.43183071192631434	0.0	0.9815064854934412	-0.36548153223462554	0.0	0.9829233029365878	-0.40655062933928426	0.0	0.9400247006555978	-0.45704495187776817	0.0	0.9507007775543466	-0.5280195399630714	0.0	1.0193410149215958	-0.5608949814499824	0.0	0.9709808370252636	-0.45965982826065066	0.0	0.9736348243249935	-0.5262285638066025	0.0	1.018124343863562	-0.5605519835131874	0.0
2	0.06694444444444445	0.9545442308707791	-0.5978143638692931	0.0	0.9483214731539048	-0.5952312370858526	0.0	0.9519645946320667	-0.6979071073073738	0.0	0.9359434138301764	-0.8105668038498652	0.0	0.9830261203852467	-0.8264151049305953	0.0	0.9764240223333719	-0.8297982519008218	0.0	0.9241550172241291	-0.8259213518471182	0.0	0.9657741482164077	-0.594346967077787	0.0	0.9572581180948176	-0.6963941583094874	0.0	0.9377846216295285	-0.8049857325773834	0.0	0.9838518615279493	-0.8246127217377612	0.0	0.9783109496205926	-0.8211813072125411	0.0	0.9216498691687928	-0.8186496498203439	0.0	0.962704750259987	-0.43222818862057105	0.0	0.9816044517285798	-0.36582844484781585	0.0	0.9833360312591626	-0.4066408287224812	0.0	0.9401314569043607	-0.4567389026541529	0.0	0.9525213254278615	-0.5274984000696958	0.0	1.0220363726429942	-0.5586241549676324	0.0	0.9701085148438472	-0.45938046768851415	0.0	0.9722276023603976	-0.5260939507465748	0.0	1.0183971346904659	-0.5588655228306022	0.0
3	0.10041666666666667	0.9540630698788327	-0.5980754236452158	0.0	0.947665954651657	-0.5956205362041761	0.0	0.9516833006391137	-0.6980855057400879	0.0	0.935790484666302	-0.810410876492955	0.0	0.9826779697326973	-0.8267159964168775	0.0	0.9761762728780926	-0.829961560308817	0.0	0.924249014998352	-0.825807152015427	0.0	0.9651116465640474	-0.5947009182349173	0.0	0.9565388767513506	-0.6968050743699677	0.0	0.9379258259319249	-0.8053124756403124	0.0	0.9833010618660817	-0.8250141019101714	0.0	0.9779918056657269	-0.8215474323276497	0.0	0.9220419391134583	-0.8193500521054164	0.0	0.9623198252461258	-0.4327675307861635	0.0	0.9816623227933606	-0.3661424506767246	0.0	0.9838967885832414	-0.4069790784216604	0.0	0.9402022887338766	-0.45683554170490254	0.0	0.9552202076458641	-0.5272482916144029	0.0	1.0252292115473562	-0.5561333806155412	0.0	0.9693093516878025	-0.4591761402040946	0.0	0.9716371875491826	-0.5258939193489377	0.0	1.0196017900384826	-0.5565640015659041	0.0
4	0.1338888888888889	0.9534911701013347	-0.5984103494018894	0.0	0.9469557057186182	-0.596238168153761	0.0	0.9511532192108417	-0.6984848079865202	0.0	0.9356463230033955	-0.8102746975612801	0.0	0.9823551101212326	-0.8272093223195592	0.0	0.9758407403797209	-0.8302992410130867	0.0	0.9244730276016365	-0.8258037240899542	0.0	0.9644606124939051	-0.595163913570045	0.0	0.9558864817447952	-0.6973058746793234	0.0	0.9380532404191245	-0.8054562754701017	0.0	0.9827251220084291	-0.825454923228042	0.0	0.9777098517835398	-0.8219147053297632	0.0	0.9224097758508467	-0.8198700545728597	0.0	0.9619539485317685	-0.4334722956315637	0.0	0.9817119528980008	-0.36638809230628105	0.0	0.9847096733540013	-0.4075297695662907	0.0	0.9402672850454805	-0.45731420843485104	0.0	0.9589564642043823	-0.5272322629512595	0.0	1.0289519808405299	-0.5532767547927468	0.0	0.9685029176118864	-0.45906352948548335	0.0	0.9719189621747543	-0.5255626281227339	0.0	1.0217992189450742	-0.5535375980914718	0.0
5	0.16736111111111113	0.9528583642718382	-0.5987933811696384	0.0	0.9462838374939875	-0.596958255419477	0.0	0.9504819911702128	-0.6989874267290774	0.0	0.9354724185108627	-0.8101677669335731	0.0	0.9820437089259919	-0.8278150686749016	0.0	0.9754416503513561	-0.8307958918160011	0.0	0.9246944154596264	-0.8259513802650772	0.0	0.963802442665891	-0.5956841669731743	0.0	0.9552582622925262	-0.6978211628998766	0.0	0.938120321150576	-0.8055058042201243	0.0	0.9821073973982872	-0.8259258707921748	0.0	0.9774379091498315	-0.8223034749942429	0.0	0.9227024492301673	-0.8202828692905132	0.0	0.9615801691141806	-0.43433954114910084	0.0	0.9818656678097776	-0.36654328040950973	0.0	0.9858820923288026	-0.40818432220861667	0.0	0.9404120859214432	-0.4579963831729477	0.0	0.9636757858157308	-0.5272614250746636	0.0	1.033211546432269	-0.5499199489802316	0.0	0.9675133401906848	-0.4590111850475539	0.0	0.9728584852971722	-0.5250227209442103	0.0	1.0245890399041768	-0.5497876159783999	0.0
6	0.20083333333333334	0.9521928205300049	-0.5991847114255481	0.0	0.9457079384374716	-0.5976133298919439	0.0	0.9497761761029693	-0.6994887286804484	0.0	0.9352317952952476	-0.8100878472707506	0.0	0.9817095262974742	-0.8284312535223799	0.0	0.9749606130350418	-0.831427947886507	0.0	0.9248003547299348	-0.8262515386492074	0.0	0.963114288184382	-0.5961914307623146	0.0	0.9545984334519545	-0.698294839813525	0.0	0.9380793376843787	-0.8055610396561872	0.0	0.9814157187867265	-0.8264375464963568	0.0	0.977110130074801	-0.8227509006673921	0.0	0.9228926977186778	-0.8207105631194884	0.0	0.9611908728784242	-0.4353499969675426	0.0	0.9822942987175373	-0.36663072840896793	0.0	0.9874738429469421	-0.4088433470277964	0.0	0.9407241544552761	-0.4586666498262777	0.0	0.9691310599420031	-0.5270176018876576	0.0	1.0380023413111468	-0.5459383502063611	0.0	0.9661434120128031	-0.45896857237609806	0.0	0.9741194628951572	-0.524187481439773	0.0	1.0272441522201168	-0.5453642149759238	0.0
7	0.23430555555555554	0.9514812848545363	-0.5995349100570864	0.0	0.945211644682382	-0.5980677850905882	0.0	0.9491001070073389	-0.6999375827994536	0.0	0.9349094242772915	-0.810021104272883	0.0	0.9813142103624746	-0.8289967125215051	0.0	0.9743640191369491	-0.8321615010652456	0.0	0.9247548877327614	-0.82664300518179	0.0	0.9623699366895723	-0.5966172934682575	0.0	0.95387151748364	-0.6987235115773858	0.0	0.937914434847747	-0.8056942953110758	0.0	0.9806201839885023	-0.8270173058432392	0.0	0.9766448487859009	-0.8233180633848036	0.0	0.9229865434834557	-0.8212266582804844	0.0	0.9608120945813305	-0.4364575263900859	0.0	0.9831297402930629	-0.3667150866366357	0.0	0.9894291095524438	-0.40946295526871507	0.0	0.9412094556984563	-0.45918994123425994	0.0	0.9749809820606075	-0.5261739073435998	0.0	1.0432505359769635	-0.5411919017625882	0.0	0.9642772099848825	-0.4589012217349603	0.0	0.9754554667025738	-0.5229752731250544	0.0	1.0290655202206873	-0.5403163765048324	0.0
8	0.2677777777777778	0.9506687140838573	-0.5997923773918706	0.0	0.9447472081407011	-0.59826404835891	0.0	0.948473039022284	-0.7002944648786491	0.0	0.9345365553640615	-0.8099547432628298	0.0	0.9808454105633314	-0.8294848769655432	0.0	0.9737035931238495	-0.8329047370908982	0.0	0.9246048404876583	-0.8270227994883251	0.0	0.9615173788255982	-0.5969069094622338	0.0	0.9530527361452431	-0.6991138843495797	0.0	0.9376601749415994	-0.8059259339980837	0.0	0.9797589639472004	-0.8276585210403062	0.0	0.9760115854896614	-0.8240299562884276	0.0	0.9230344854757248	-0.8217964267940011	0.0	0.9605008289303839	-0.4375500995307418	0.0	0.9843721198976764	-0.36687279267217165	0.0	0.9915643884068988	-0.41003479558307177	0.0	0.9418026056584461	-0.4595278379358504	0.0	0.9809175548532907	-0.5245351816524519	0.0	1.0487976952628075	-0.5355396545025816	0.0	0.9619368686968541	-0.4587791380336165	0.0	0.976891661869277	-0.5213184585864389	0.0	1.0299472285890598	-0.5346481980675029	0.0
9	0.30125	0.9497059322924943	-0.5998863712708651	0.0	0.9442888811920574	-0.5982198389386135	0.0	0.9478942100974733	-0.7004650391452943	0.0	0.9342070071330113	-0.8098701026695726	0.0	0.9803404523186704	-0.8298438541479451	0.0	0.973140407883843	-0.8334780029296052	0.0	0.9244657430723497	-0.8272803643581091	0.0	0.9604797906607613	-0.5970188794527707	0.0	0.9521297938126639	-0.6994109341987697	0.0	0.9373896021147012	-0.8061929894258547	0.0	0.978970917256986	-0.8282501442314096	0.0	0.9752921927957691	-0.8247659108022947	0.0	0.9231258487158748	-0.8222788325262925	0.0	0.9603025347177252	-0.4384306278010815	0.0	0.9858555151426442	-0.36713732632626855	0.0	0.9936455688456589	-0.41057090583467526	0.0	0.9424487092563331	-0.4596771497814243	0.0	0.9867146685833815	-0.5220729221127673	0.0	1.054423121006203	-0.5289221169612316	0.0	0.9593194777734758	-0.45855271751939863	0.0	0.9788687253067461	-0.5191358018769291	0.0	1.0311388370701848	-0.5282909592509097	0.0
10	0.33472222222222225	0.948609966784657	-0.5997254144524604	0.0	0.9438549972232725	-0.597975861157225	0.0	0.9473544046632285	-0.7003299987596038	0.0	0.9340155367529085	-0.8097478856355899	0.0	0.9798670530672595	-0.8299970101887715	0.0	0.9728135794125746	-0.833702617663384	0.0	0.9244614528358369	-0.827350690935758	0.0	0.9592298810870098	-0.596910334498013	0.0	0.9511264624694666	-0.6995041855959002	0.0	0.9371719548016125	-0.8063820813793989	0.0	0.9784264013324955	-0.8285936806591594	0.0	0.9746533886858046	-0.8252619054775868	0.0	0.9233240970699801	-0.8225109837493234	0.0	0.9602012915673747	-0.4389029011598507	0.0	0.9872846278661741	-0.3674428471849521	0.0	0.9954875719550784	-0.41109798889609134	0.0	0.9431315163432793	-0.4596227506638835	0.0	0.9921911157160016	-0.5188952651999107	0.0	1.0598549857024055	-0.5214449112671399	0.0	0.9568191687719051	-0.4581740674934629	0.0	0.9820828364379911	-0.516354290510271	0.0	1.0349826204897763	-0.5211724985862672	0.0
